<?xml version="1.0" encoding="UTF-8"?>
<svg xmlns="http://www.w3.org/2000/svg" xmlns:xlink="http://www.w3.org/1999/xlink" width="75px" height="75px" viewBox="0 0 75 75" version="1.1">
<g id="surface1">
<path style=" stroke:none;fill-rule:nonzero;fill:rgb(0%,0%,0%);fill-opacity:1;" d="M 25.125 40.820312 C 24.8125 40.828125 24.503906 40.96875 24.316406 41.226562 C 23.664062 42.140625 17.945312 50.253906 17.898438 53.808594 C 17.84375 57.695312 20.960938 60.898438 24.847656 60.957031 C 24.878906 60.957031 24.910156 60.957031 24.945312 60.957031 C 28.785156 60.957031 31.941406 57.859375 31.992188 54.003906 C 32.042969 50.445312 26.546875 42.179688 25.917969 41.25 C 25.738281 40.984375 25.441406 40.824219 25.125 40.820312 Z M 24.945312 59.003906 C 24.921875 59.003906 24.898438 59.003906 24.875 59.003906 C 22.0625 58.964844 19.808594 56.648438 19.847656 53.835938 C 19.875 51.679688 23.125 46.441406 25.085938 43.539062 C 26.96875 46.492188 30.070312 51.820312 30.042969 53.976562 C 30.003906 56.765625 27.722656 59.003906 24.945312 59.003906 Z M 46.265625 14.042969 C 45.941406 14.058594 45.644531 14.195312 45.460938 14.453125 C 45.027344 15.054688 34.925781 29.273438 34.84375 35.117188 C 34.804688 38.089844 35.921875 40.902344 37.996094 43.03125 C 40.070312 45.164062 42.847656 46.359375 45.820312 46.398438 C 45.875 46.398438 45.925781 46.398438 45.980469 46.398438 C 48.890625 46.398438 51.640625 45.285156 53.734375 43.246094 C 55.867188 41.171875 57.0625 38.394531 57.101562 35.421875 C 57.1875 29.578125 47.476562 15.089844 47.0625 14.476562 C 46.882812 14.210938 46.585938 14.050781 46.265625 14.042969 Z M 52.378906 41.851562 C 50.617188 43.5625 48.316406 44.503906 45.847656 44.449219 C 43.398438 44.417969 41.105469 43.429688 39.394531 41.671875 C 37.683594 39.914062 36.761719 37.597656 36.796875 35.144531 C 36.851562 31.167969 43.011719 21.421875 46.226562 16.75 C 49.320312 21.507812 55.210938 31.417969 55.15625 35.394531 C 55.121094 37.847656 54.136719 40.144531 52.378906 41.851562 Z M 42.183594 38.902344 C 43.394531 40.148438 45.019531 40.847656 46.753906 40.871094 C 47.292969 40.878906 47.722656 41.320312 47.714844 41.859375 C 47.710938 42.394531 47.273438 42.820312 46.742188 42.820312 C 46.738281 42.820312 46.734375 42.820312 46.726562 42.820312 C 44.46875 42.789062 42.359375 41.882812 40.785156 40.261719 C 39.210938 38.644531 38.359375 36.511719 38.390625 34.253906 C 38.398438 33.714844 38.886719 33.320312 39.382812 33.289062 C 39.917969 33.296875 40.351562 33.742188 40.34375 34.277344 C 40.316406 36.015625 40.972656 37.65625 42.183594 38.902344 Z M 42.183594 38.902344 "/>
</g>
</svg>
